<svg id="Capa_1" enable-background="new 0 0 512 512" height="512" viewBox="0 0 512 512" width="512" xmlns="http://www.w3.org/2000/svg"><g><path d="m438.611 63.596h-208.429c-18.172 0-35.259 8.647-46.021 23.289l-33.331 45.348c-6.397 8.703-17.978 11.799-27.864 7.449-12.42-5.465-17.459-20.421-10.877-32.288l14.28-25.746c24.525-44.217 71.108-71.648 121.671-71.648h189.277z" fill="#ffd0c7"/><path d="m114.683 256.127h246.905v205.873h-246.905z" fill="#ffda8f"/><path d="m276.584 315.246-37.836-16.821-39.062 16.821v-59.119h76.898z" fill="#fff"/><path d="m10 375.223h64.683v126.777h-64.683z" fill="#fff"/><path d="m10 375.223h64.683v126.777h-64.683z" fill="#fff"/><path d="m10 375.223h64.683v126.777h-64.683z" fill="#fff"/><path d="m76.255 414.307c10.296-29.759 38.565-51.129 71.825-51.129 28.442 0 53.234 15.627 66.259 38.764v.001h52.629c12.828 0 23.228 10.4 23.228 23.228 0 12.828-10.4 23.228-23.228 23.228h-62.345 40.991l-9.878.005h46.083c18.172 0 35.259-8.647 46.021-23.289l33.331-45.348c6.397-8.703 17.978-11.799 27.864-7.449 12.42 5.465 17.459 20.421 10.877 32.288l-14.28 25.746c-24.526 44.217-71.109 71.648-121.672 71.648h-189.277z" fill="#f3c9a6"/><path d="m10 375.223h64.683v126.777h-64.683z" fill="#66e0f7"/><path d="m10 375.223h64.683v126.777h-64.683z" fill="#66e0f7"/><path d="m10 375.223h64.683v126.777h-64.683z" fill="#66e0f7"/><path d="m10 375.223h64.683v126.777h-64.683z" fill="#66e0f7"/><path d="m64 62.691h300.153v153.309h-300.153z" fill="#fff"/><path d="m114.039 62.691h200.074c0 27.636 22.403 50.039 50.039 50.039v53.23c-27.636 0-50.039 22.403-50.039 50.039h-200.074c0-27.636-22.403-50.039-50.039-50.039v-53.23c27.636.001 50.039-22.403 50.039-50.039z" fill="#a0e5a5"/><path d="m452.291 61.167c-1.532 31.452-22.668 59.896-54.592 69.229-27.299 7.981-55.481-.061-74.474-18.614v-.001l-50.515 14.768c-12.313 3.6-25.213-3.464-28.813-15.777-3.6-12.313 3.464-25.213 15.777-28.813l87.95-25.713 37.437-22.839z" fill="#ffd0c7"/><g transform="matrix(-1 0 0 -1 939.317 146.777)"><path d="m437.317 10h64.683v126.777h-64.683z" fill="#fff"/><path d="m437.317 10h64.683v126.777h-64.683z" fill="#fff"/><path d="m437.317 10h64.683v126.777h-64.683z" fill="#fff"/><path d="m437.317 10h64.683v126.777h-64.683z" fill="#66e0f7"/><path d="m437.317 10h64.683v126.777h-64.683z" fill="#66e0f7"/><path d="m437.317 10h64.683v126.777h-64.683z" fill="#66e0f7"/><path d="m437.317 10h64.683v126.777h-64.683z" fill="#66e0f7"/></g><circle cx="214.077" cy="139.346" fill="#fff" r="31.346"/><g><path d="m393.062 363.165c-7.01-3.084-14.535-3.591-21.474-1.827v-105.211c0-5.522-4.478-10-10-10h-246.905c-5.523 0-10 4.478-10 10v108.526c-7.365 4.138-14.119 9.279-20 15.264v-4.694c0-5.522-4.477-10-10-10h-64.683c-5.523 0-10 4.478-10 10v126.777c0 5.522 4.477 10 10 10h253.96c54.169 0 104.142-29.427 130.416-76.797l14.28-25.746c4.497-8.108 5.38-17.799 2.42-26.587-2.961-8.787-9.526-15.97-18.014-19.705zm-126.478-97.038v33.729l-23.774-10.569c-2.549-1.134-5.455-1.15-8.018-.047l-25.106 10.812v-33.925zm-141.901 0h65.003v49.119c0 3.364 1.692 6.504 4.502 8.354 1.657 1.091 3.572 1.646 5.498 1.646 1.341 0 2.687-.27 3.955-.815l35.042-15.091 33.838 15.044c3.095 1.376 6.674 1.091 9.511-.753 2.839-1.844 4.552-4.999 4.552-8.385v-49.119h65.004v109.793l-31.807 43.272c-5.404 7.353-12.812 12.882-21.161 16.08 1.02-3.188 1.575-6.581 1.575-10.102 0-18.321-14.906-33.228-33.228-33.228l-47.021-.001c-15.831-24.054-42.847-38.765-71.867-38.765-8.002 0-15.865 1.118-23.397 3.208v-90.257zm-104.683 119.096h44.683v106.777h-44.683zm371.166 14.533-14.28 25.746c-22.751 41.018-66.022 66.498-112.926 66.498h-179.277v-75.91c9.514-25.341 35.338-42.913 63.397-42.913 23.803 0 45.853 12.902 57.544 33.671 1.772 3.147 5.103 5.095 8.714 5.095h52.629c7.294 0 13.228 5.934 13.228 13.228s-5.934 13.229-13.228 13.229h-62.345c-5.523 0-10 4.478-10 10s4.477 10 10 10l77.195.005c21.267 0 41.482-10.23 54.078-27.366l33.332-45.349c3.648-4.965 10.134-6.703 15.778-4.218 3.401 1.497 5.929 4.261 7.115 7.783 1.189 3.521.849 7.251-.954 10.501z"/><path d="m502 0h-253.96c-44.163 0-85.357 19.147-113.754 52.691h-70.286c-5.523 0-10 4.478-10 10v153.309c0 5.522 4.477 10 10 10h102c5.523 0 10-4.478 10-10s-4.477-10-10-10h-42.331c-4.142-25.356-24.27-45.404-49.669-49.414v-34.48c25.399-4.01 45.527-24.058 49.669-49.414h132.169c-8.054 2.636-14.701 8.138-18.79 15.605-2.452 4.478-3.81 9.351-4.052 14.304-5.675-2.933-12.104-4.601-18.919-4.601-22.798 0-41.346 18.548-41.346 41.346s18.547 41.346 41.346 41.346 41.346-18.548 41.346-41.346c0-1.262-.066-2.508-.177-3.741 6.322 2.218 13.365 2.562 20.271.544l45.132-13.194c9.846 8.365 21.325 14.291 33.505 17.549v16.081c-25.399 4.01-45.527 24.058-49.669 49.414h-48.485c-5.523 0-10 4.478-10 10s4.477 10 10 10h108.153c5.522 0 10-4.478 10-10v-72.611c.762.02 1.524.05 2.288.05 8.039 0 16.144-1.129 24.063-3.444 9.769-2.856 18.8-7.329 26.812-13.221v10.003c0 5.522 4.478 10 10 10h64.684c5.522 0 10-4.478 10-10v-126.776c0-5.522-4.478-10-10-10zm-177.115 206c3.584-14.304 14.921-25.558 29.268-29.03v29.03zm-221.617 0h-29.268v-29.03c14.347 3.472 25.685 14.726 29.268 29.03zm-29.268-104.279v-29.03h29.268c-3.583 14.304-14.921 25.558-29.268 29.03zm140.077 58.97c-11.77 0-21.346-9.575-21.346-21.346s9.576-21.345 21.346-21.345 21.346 9.575 21.346 21.346-9.576 21.345-21.346 21.345zm180.816-39.893c-22.846 6.679-47.632.484-64.679-16.169-2.585-2.523-6.329-3.457-9.794-2.445l-50.515 14.769c-7.007 2.05-14.363-1.984-16.409-8.985-.992-3.391-.603-6.965 1.094-10.064s4.499-5.352 7.891-6.343l87.95-25.713c5.302-1.55 8.343-7.104 6.793-12.404-1.55-5.302-7.106-8.34-12.404-6.793l-20.73 6.061c-.122-.004-.242-.019-.366-.019h-161.608c23.457-20.983 53.783-32.693 85.924-32.693h179.277v79.402c-8.422 10.259-19.59 17.645-32.424 21.396zm97.107 5.979h-44.683v-106.777h44.683z"/><circle cx="211" cy="215.927" r="10"/></g></g></svg>